<svg width="24" height="24" viewBox="0 0 24 24" fill="none" xmlns="http://www.w3.org/2000/svg">
<path fill-rule="evenodd" clip-rule="evenodd" d="M17.0311 2.46912C17.101 2.53879 17.1564 2.62155 17.1942 2.71267C17.232 2.80379 17.2515 2.90147 17.2515 3.00012C17.2515 3.09877 17.232 3.19645 17.1942 3.28757C17.1564 3.37869 17.101 3.46145 17.0311 3.53112L8.56062 12.0001L17.0311 20.4691C17.1719 20.6099 17.2511 20.801 17.2511 21.0001C17.2511 21.1993 17.1719 21.3903 17.0311 21.5311C16.8903 21.6719 16.6993 21.7511 16.5001 21.7511C16.301 21.7511 16.1099 21.6719 15.9691 21.5311L6.96912 12.5311C6.89927 12.4615 6.84386 12.3787 6.80605 12.2876C6.76824 12.1965 6.74878 12.0988 6.74878 12.0001C6.74878 11.9015 6.76824 11.8038 6.80605 11.7127C6.84386 11.6216 6.89927 11.5388 6.96912 11.4691L15.9691 2.46912C16.0388 2.39928 16.1216 2.34386 16.2127 2.30605C16.3038 2.26824 16.4015 2.24878 16.5001 2.24878C16.5988 2.24878 16.6965 2.26824 16.7876 2.30605C16.8787 2.34386 16.9615 2.39928 17.0311 2.46912Z" fill="url(#paint0_linear_43_85)"/>
<defs>
<linearGradient id="paint0_linear_43_85" x1="6.74878" y1="11.9999" x2="17.2515" y2="11.9999" gradientUnits="userSpaceOnUse">
<stop offset="0.405" stop-color="#004581"/>
<stop offset="1" stop-color="#000E1B"/>
</linearGradient>
</defs>
</svg>
