<svg width="24" height="24" viewBox="0 0 24 24" fill="none" xmlns="http://www.w3.org/2000/svg">
<path fill-rule="evenodd" clip-rule="evenodd" d="M6.96912 2.46912C7.03879 2.39928 7.12155 2.34386 7.21267 2.30605C7.30379 2.26824 7.40147 2.24878 7.50012 2.24878C7.59877 2.24878 7.69645 2.26824 7.78757 2.30605C7.87869 2.34386 7.96145 2.39928 8.03112 2.46912L17.0311 11.4691C17.101 11.5388 17.1564 11.6216 17.1942 11.7127C17.232 11.8038 17.2515 11.9015 17.2515 12.0001C17.2515 12.0988 17.232 12.1965 17.1942 12.2876C17.1564 12.3787 17.101 12.4615 17.0311 12.5311L8.03112 21.5311C7.89029 21.6719 7.69928 21.7511 7.50012 21.7511C7.30096 21.7511 7.10995 21.6719 6.96912 21.5311C6.82829 21.3903 6.74917 21.1993 6.74917 21.0001C6.74917 20.801 6.82829 20.6099 6.96912 20.4691L15.4396 12.0001L6.96912 3.53112C6.89927 3.46145 6.84386 3.37869 6.80605 3.28757C6.76824 3.19645 6.74878 3.09877 6.74878 3.00012C6.74878 2.90147 6.76824 2.80379 6.80605 2.71267C6.84386 2.62155 6.89927 2.53879 6.96912 2.46912Z" fill="url(#paint0_linear_43_87)"/>
<defs>
<linearGradient id="paint0_linear_43_87" x1="6.74878" y1="11.9999" x2="17.2515" y2="11.9999" gradientUnits="userSpaceOnUse">
<stop offset="0.405" stop-color="#004581"/>
<stop offset="1" stop-color="#000E1B"/>
</linearGradient>
</defs>
</svg>
