<svg aria-hidden="true" style="position: absolute; width: 0; height: 0; overflow: hidden;" version="1.1" xmlns="http://www.w3.org/2000/svg" xmlns:xlink="http://www.w3.org/1999/xlink">
  <defs>
    <symbol id="icon-FilterRight" viewBox="0 0 24 24" fill="none">
      <path fill-rule="evenodd" clip-rule="evenodd" d="M21 15.75C21 15.5511 20.921 15.3603 20.7803 15.2197C20.6397 15.079 20.4489 15 20.25 15H15.75C15.5511 15 15.3603 15.079 15.2197 15.2197C15.079 15.3603 15 15.5511 15 15.75C15 15.9489 15.079 16.1397 15.2197 16.2803C15.3603 16.421 15.5511 16.5 15.75 16.5H20.25C20.4489 16.5 20.6397 16.421 20.7803 16.2803C20.921 16.1397 21 15.9489 21 15.75ZM21 11.25C21 11.0511 20.921 10.8603 20.7803 10.7197C20.6397 10.579 20.4489 10.5 20.25 10.5H9.75C9.55109 10.5 9.36032 10.579 9.21967 10.7197C9.07902 10.8603 9 11.0511 9 11.25C9 11.4489 9.07902 11.6397 9.21967 11.7803C9.36032 11.921 9.55109 12 9.75 12H20.25C20.4489 12 20.6397 11.921 20.7803 11.7803C20.921 11.6397 21 11.4489 21 11.25ZM21 6.75C21 6.55109 20.921 6.36032 20.7803 6.21967C20.6397 6.07902 20.4489 6 20.25 6H3.75C3.55109 6 3.36032 6.07902 3.21967 6.21967C3.07902 6.36032 3 6.55109 3 6.75C3 6.94891 3.07902 7.13968 3.21967 7.28033C3.36032 7.42098 3.55109 7.5 3.75 7.5H20.25C20.4489 7.5 20.6397 7.42098 20.7803 7.28033C20.921 7.13968 21 6.94891 21 6.75Z" fill="url(#paint0_linear_1)"/>
      <defs>
        <linearGradient id="paint0_linear_1" x1="4" y1="12" x2="21" y2="12" gradientUnits="userSpaceOnUse">
          <stop offset="0.405" stop-color="#004581"/>
          <stop offset="1" stop-color="#000E1B"/>
        </linearGradient>
      </defs>
    </symbol>
    <symbol id="icon-ChevronRight" viewBox="0 0 24 24" fill="none">
      <path fill-rule="evenodd" clip-rule="evenodd" d="M6.96912 2.46912C7.03879 2.39928 7.12155 2.34386 7.21267 2.30605C7.30379 2.26824 7.40147 2.24878 7.50012 2.24878C7.59877 2.24878 7.69645 2.26824 7.78757 2.30605C7.87869 2.34386 7.96145 2.39928 8.03112 2.46912L17.0311 11.4691C17.101 11.5388 17.1564 11.6216 17.1942 11.7127C17.232 11.8038 17.2515 11.9015 17.2515 12.0001C17.2515 12.0988 17.232 12.1965 17.1942 12.2876C17.1564 12.3787 17.101 12.4615 17.0311 12.5311L8.03112 21.5311C7.89029 21.6719 7.69928 21.7511 7.50012 21.7511C7.30096 21.7511 7.10995 21.6719 6.96912 21.5311C6.82829 21.3903 6.74917 21.1993 6.74917 21.0001C6.74917 20.801 6.82829 20.6099 6.96912 20.4691L15.4396 12.0001L6.96912 3.53112C6.89927 3.46145 6.84386 3.37869 6.80605 3.28757C6.76824 3.19645 6.74878 3.09877 6.74878 3.00012C6.74878 2.90147 6.76824 2.80379 6.80605 2.71267C6.84386 2.62155 6.89927 2.53879 6.96912 2.46912Z" fill="url(#paint0_linear_2)"/>
      <defs>
        <linearGradient id="paint0_linear_2" x1="6.74878" y1="12" x2="17.2515" y2="12" gradientUnits="userSpaceOnUse">
          <stop offset="0.405" stop-color="#004581"/>
          <stop offset="1" stop-color="#000E1B"/>
        </linearGradient>
      </defs>
    </symbol>
    <symbol id="icon-XLg" viewBox="0 0 24 24" fill="none">
      <path fill-rule="evenodd" clip-rule="evenodd" d="M3.21897 4.28097C3.14924 4.21124 3.09392 4.12846 3.05619 4.03735C3.01845 3.94624 2.99902 3.84859 2.99902 3.74997C2.99902 3.65135 3.01845 3.5537 3.05619 3.4626C3.09392 3.37149 3.14924 3.2887 3.21897 3.21897C3.2887 3.14924 3.37149 3.09392 3.4626 3.05619C3.5537 3.01845 3.65135 2.99902 3.74997 2.99902C3.84859 2.99902 3.94624 3.01845 4.03735 3.05619C4.12846 3.09392 4.21124 3.14924 4.28097 3.21897L12 10.9395L19.719 3.21897C19.7887 3.14924 19.8715 3.09392 19.9626 3.05619C20.0537 3.01845 20.1514 2.99902 20.25 2.99902C20.3486 2.99902 20.4462 3.01845 20.5373 3.05619C20.6285 3.09392 20.7112 3.14924 20.781 3.21897C20.8507 3.2887 20.906 3.37149 20.9438 3.4626C20.9815 3.5537 21.0009 3.65135 21.0009 3.74997C21.0009 3.84859 20.9815 3.94624 20.9438 4.03735C20.906 4.12846 20.8507 4.21124 20.781 4.28097L13.0605 12L20.781 19.719C20.8507 19.7887 20.906 19.8715 20.9438 19.9626C20.9815 20.0537 21.0009 20.1514 21.0009 20.25C21.0009 20.3486 20.9815 20.4462 20.9438 20.5373C20.906 20.6285 20.8507 20.7112 20.781 20.781C20.7112 20.8507 20.6285 20.906 20.5373 20.9438C20.4462 20.9815 20.3486 21.0009 20.25 21.0009C20.1514 21.0009 20.0537 20.9815 19.9626 20.9438C19.8715 20.906 19.7887 20.8507 19.719 20.781L12 13.0605L4.28097 20.781C4.21124 20.8507 4.12846 20.906 4.03735 20.9438C3.94624 20.9815 3.84859 21.0009 3.74997 21.0009C3.65135 21.0009 3.5537 20.9815 3.4626 20.9438C3.37149 20.906 3.2887 20.8507 3.21897 20.781C3.14924 20.7112 3.09392 20.6285 3.05619 20.5373C3.01845 20.4462 2.99902 20.3486 2.99902 20.25C2.99902 20.1514 3.01845 20.0537 3.05619 19.9626C3.09392 19.8715 3.14924 19.7887 3.21897 19.719L10.9395 12L3.21897 4.28097Z" fill="url(#paint0_linear_3)"/>
      <defs>
        <linearGradient id="paint0_linear_3" x1="6.74878" y1="12" x2="17.2515" y2="12" gradientUnits="userSpaceOnUse">
          <stop offset="0.405" stop-color="#004581"/>
          <stop offset="1" stop-color="#000E1B"/>
        </linearGradient>
      </defs>
    </symbol>
    <symbol id="icon-ChevronLeft" viewBox="0 0 24 24" fill="none">
      <path fill-rule="evenodd" clip-rule="evenodd" d="M17.0311 2.46912C17.101 2.53879 17.1564 2.62155 17.1942 2.71267C17.232 2.80379 17.2515 2.90147 17.2515 3.00012C17.2515 3.09877 17.232 3.19645 17.1942 3.28757C17.1564 3.37869 17.101 3.46145 17.0311 3.53112L8.56062 12.0001L17.0311 20.4691C17.1719 20.6099 17.2511 20.801 17.2511 21.0001C17.2511 21.1993 17.1719 21.3903 17.0311 21.5311C16.8903 21.6719 16.6993 21.7511 16.5001 21.7511C16.301 21.7511 16.1099 21.6719 15.9691 21.5311L6.96912 12.5311C6.89927 12.4615 6.84386 12.3787 6.80605 12.2876C6.76824 12.1965 6.74878 12.0988 6.74878 12.0001C6.74878 11.9015 6.76824 11.8038 6.80605 11.7127C6.84386 11.6216 6.89927 11.5388 6.96912 11.4691L15.9691 2.46912C16.0388 2.39928 16.1216 2.34386 16.2127 2.30605C16.3038 2.26824 16.4015 2.24878 16.5001 2.24878C16.5988 2.24878 16.6965 2.26824 16.7876 2.30605C16.8787 2.34386 16.9615 2.39928 17.0311 2.46912Z" fill="url(#paint0_linear_4)"/>
      <defs>
        <linearGradient id="paint0_linear_4" x1="6.74878" y1="12" x2="17.2515" y2="12" gradientUnits="userSpaceOnUse">
          <stop offset="0.405" stop-color="#004581"/>
          <stop offset="1" stop-color="#000E1B"/>
        </linearGradient>
      </defs>
    </symbol>
    <symbol id="icon-ChevronDown" viewBox="0 0 24 24" fill="none">
      <path fill-rule="evenodd" clip-rule="evenodd" d="M2.46912 6.969C2.53879 6.89915 2.62155 6.84374 2.71267 6.80593C2.80379 6.76812 2.90147 6.74866 3.00012 6.74866C3.09877 6.74866 3.19645 6.76812 3.28757 6.80593C3.37869 6.84374 3.46145 6.89915 3.53112 6.969L12.0001 15.4395L20.4691 6.969C20.5389 6.89927 20.6216 6.84395 20.7127 6.80621C20.8039 6.76847 20.9015 6.74905 21.0001 6.74905C21.0987 6.74905 21.1964 6.76847 21.2875 6.80621C21.3786 6.84395 21.4614 6.89927 21.5311 6.969C21.6009 7.03873 21.6562 7.12151 21.6939 7.21262C21.7316 7.30373 21.7511 7.40138 21.7511 7.5C21.7511 7.59861 21.7316 7.69626 21.6939 7.78737C21.6562 7.87848 21.6009 7.96127 21.5311 8.031L12.5311 17.031C12.4615 17.1008 12.3787 17.1563 12.2876 17.1941C12.1965 17.2319 12.0988 17.2513 12.0001 17.2513C11.9015 17.2513 11.8038 17.2319 11.7127 17.1941C11.6216 17.1563 11.5388 17.1008 11.4691 17.031L2.46912 8.031C2.39928 7.96133 2.34386 7.87857 2.30605 7.78745C2.26824 7.69633 2.24878 7.59865 2.24878 7.5C2.24878 7.40135 2.26824 7.30366 2.30605 7.21255C2.34386 7.12143 2.39928 7.03867 2.46912 6.969Z" fill="url(#paint0_linear_5)"/>
      <defs>
        <linearGradient id="paint0_linear_5" x1="2.24878" y1="12" x2="21.7511" y2="12" gradientUnits="userSpaceOnUse">
          <stop offset="0.405" stop-color="#004581"/>
          <stop offset="1" stop-color="#000E1B"/>
        </linearGradient>
      </defs>
    </symbol>
    <symbol id="icon-StarFill" viewBox="0 0 24 24" fill="none">
      <g clip-path="url(#clip0_43_103)">
        <path d="M5.41793 22.5645C4.83893 22.8615 4.18193 22.341 4.29893 21.6765L5.54393 14.5815L0.259433 9.54754C-0.234067 9.07654 0.0224333 8.21554 0.683933 8.12254L8.03093 7.07854L11.3069 0.588042C11.6024 0.00304197 12.4019 0.00304197 12.6974 0.588042L15.9734 7.07854L23.3204 8.12254C23.9819 8.21554 24.2384 9.07654 23.7434 9.54754L18.4604 14.5815L19.7054 21.6765C19.8224 22.341 19.1654 22.8615 18.5864 22.5645L11.9999 19.1805L5.41793 22.5645Z" fill="url(#paint0_linear_43_103)"/>
      </g>
      <defs>
        <linearGradient id="paint0_linear_43_103" x1="12.002" y1="0.149292" x2="12.002" y2="22.65" gradientUnits="userSpaceOnUse">
          <stop stop-color="#D400F8"/>
          <stop offset="1" stop-color="#9B04B4"/>
        </linearGradient>
        <clipPath id="clip0_43_103">
          <rect width="24" height="24" fill="white"/>
        </clipPath>
      </defs>
    </symbol>
    <symbol id="icon-Download" viewBox="0 0 24 24" fill="none">
      <path d="M0.75 14.25C0.948912 14.25 1.13968 14.329 1.28033 14.4697C1.42098 14.6103 1.5 14.8011 1.5 15V18.75C1.5 19.1478 1.65804 19.5294 1.93934 19.8107C2.22064 20.092 2.60218 20.25 3 20.25H21C21.3978 20.25 21.7794 20.092 22.0607 19.8107C22.342 19.5294 22.5 19.1478 22.5 18.75V15C22.5 14.8011 22.579 14.6103 22.7197 14.4697C22.8603 14.329 23.0511 14.25 23.25 14.25C23.4489 14.25 23.6397 14.329 23.7803 14.4697C23.921 14.6103 24 14.8011 24 15V18.75C24 19.5456 23.6839 20.3087 23.1213 20.8713C22.5587 21.4339 21.7956 21.75 21 21.75H3C2.20435 21.75 1.44129 21.4339 0.87868 20.8713C0.316071 20.3087 0 19.5456 0 18.75V15C0 14.8011 0.0790176 14.6103 0.21967 14.4697C0.360322 14.329 0.551088 14.25 0.75 14.25Z" fill="url(#paint0_linear_43_107)"/>
      <path d="M11.469 17.181C11.5386 17.2509 11.6214 17.3063 11.7125 17.3441C11.8036 17.3819 11.9013 17.4014 12 17.4014C12.0986 17.4014 12.1963 17.3819 12.2874 17.3441C12.3785 17.3063 12.4613 17.2509 12.531 17.181L17.031 12.681C17.1718 12.5402 17.2509 12.3492 17.2509 12.15C17.2509 11.9509 17.1718 11.7599 17.031 11.619C16.8901 11.4782 16.6991 11.3991 16.5 11.3991C16.3008 11.3991 16.1098 11.4782 15.969 11.619L12.75 14.8395V1.65002C12.75 1.45111 12.671 1.26035 12.5303 1.11969C12.3896 0.979042 12.1989 0.900024 12 0.900024C11.8011 0.900024 11.6103 0.979042 11.4696 1.11969C11.329 1.26035 11.25 1.45111 11.25 1.65002V14.8395L8.03097 11.619C7.89014 11.4782 7.69913 11.3991 7.49997 11.3991C7.30081 11.3991 7.1098 11.4782 6.96897 11.619C6.82814 11.7599 6.74902 11.9509 6.74902 12.15C6.74902 12.3492 6.82814 12.5402 6.96897 12.681L11.469 17.181Z" fill="url(#paint1_linear_43_107)"/>
      <defs>
        <linearGradient id="paint0_linear_43_107" x1="12" y1="14.25" x2="12" y2="21.75" gradientUnits="userSpaceOnUse">
          <stop stop-color="#9ED500"/>
          <stop offset="1" stop-color="#5A7A01"/>
        </linearGradient>
        <linearGradient id="paint1_linear_43_107" x1="12" y1="0.900024" x2="12" y2="17.4014" gradientUnits="userSpaceOnUse">
          <stop stop-color="#9ED500"/>
          <stop offset="1" stop-color="#5A7A01"/>
        </linearGradient>
      </defs>
    </symbol>
    <symbol id="icon-HandThumbsUpFill" viewBox="0 0 24 24" fill="none">
      <g clip-path="url(#clip0_43_112)">
        <path d="M10.434 2.01746C10.5315 0.614963 11.862 -0.469537 13.296 -0.112537L13.6875 -0.0135372C14.382 0.160463 14.9985 0.670463 15.2055 1.43396C15.5355 2.65796 16.005 5.20046 15.2985 8.19896C15.5194 8.16853 15.741 8.14302 15.963 8.12246C17.0325 8.02496 18.4665 8.01446 19.737 8.43746C20.514 8.69696 21.228 9.45896 21.537 10.347C21.813 11.145 21.777 12.09 21.186 12.9465C21.272 13.1265 21.341 13.308 21.393 13.491C21.5085 13.896 21.5625 14.3415 21.5625 14.775C21.5625 15.2085 21.5085 15.654 21.393 16.059C21.3345 16.2615 21.258 16.4685 21.153 16.665C21.4065 17.2455 21.3135 17.8935 21.1485 18.387C20.9787 18.8739 20.7315 19.3302 20.4165 19.7385C20.4975 19.9665 20.5305 20.2065 20.5305 20.436C20.5305 20.8935 20.397 21.3735 20.151 21.804C19.65 22.683 18.6555 23.4 17.25 23.4H12C11.0925 23.4 10.395 23.2785 9.801 23.073C9.29014 22.8867 8.80203 22.6431 8.346 22.347L8.274 22.302C7.518 21.8415 6.7755 21.3885 5.172 21.219C4.023 21.096 3 20.169 3 18.9V12.9C3 11.625 4.0275 10.752 5.0355 10.4775C6.309 10.1295 7.3965 9.29696 8.2335 8.36246C9.0735 7.42196 9.6045 6.44246 9.792 5.90396C10.0905 5.04146 10.326 3.59546 10.434 2.01896V2.01746Z" fill="url(#paint0_linear_43_112)"/>
      </g>
      <defs>
        <linearGradient id="paint0_linear_43_112" x1="12.3516" y1="-0.181152" x2="12.3516" y2="23.4" gradientUnits="userSpaceOnUse">
          <stop stop-color="#FFA600"/>
          <stop offset="1" stop-color="#D98D00"/>
        </linearGradient>
        <clipPath id="clip0_43_112">
          <rect width="24" height="24" fill="white"/> 
        </clipPath>
      </defs>
    </symbol>
    <symbol id="icon-WifiOff" viewBox="0 0 24 24" fill="none">
      <path d="M16.0589 4.34099C14.7258 4.04785 13.3648 3.89999 11.9999 3.89999C7.88839 3.89999 4.08439 5.22299 0.994394 7.46849C0.910161 7.53144 0.840576 7.6119 0.790432 7.70433C0.740288 7.79676 0.710778 7.89896 0.703935 8.00389C0.697091 8.10882 0.713077 8.21399 0.750791 8.31215C0.788505 8.41031 0.847051 8.49913 0.922394 8.57249C1.05379 8.70107 1.22638 8.7791 1.40971 8.79282C1.59304 8.80655 1.77532 8.75507 1.92439 8.64749C4.8572 6.53115 8.38324 5.39465 11.9999 5.39999C12.9459 5.39999 13.8719 5.47399 14.7779 5.62199L16.0589 4.34099ZM11.9999 8.39999C9.14239 8.39999 6.47989 9.23999 4.25089 10.689C4.16172 10.7492 4.08717 10.8286 4.03271 10.9213C3.97826 11.0141 3.94529 11.1179 3.93622 11.2251C3.92716 11.3323 3.94223 11.4402 3.98033 11.5408C4.01843 11.6414 4.07859 11.7322 4.15639 11.8065C4.2842 11.9312 4.45061 12.0088 4.62832 12.0265C4.80602 12.0443 4.98448 12.001 5.13439 11.904C6.72545 10.8845 8.52433 10.2336 10.3994 9.99899L11.9999 8.39999ZM15.8939 10.506L17.0714 9.32849C18.0184 9.69049 18.9109 10.144 19.7489 10.689C19.8376 10.7495 19.9117 10.8291 19.9658 10.9218C20.02 11.0146 20.0528 11.1183 20.0618 11.2253C20.0709 11.3323 20.0559 11.44 20.0182 11.5405C19.9804 11.6411 19.9207 11.7319 19.8434 11.8065C19.7156 11.9312 19.5492 12.0088 19.3715 12.0265C19.1938 12.0443 19.0153 12.001 18.8654 11.904C17.9398 11.312 16.9415 10.8421 15.8954 10.506H15.8939ZM11.9999 14.4L13.3994 13.0005C14.4512 13.1523 15.4712 13.4751 16.4189 13.956C16.8464 14.1735 16.9079 14.742 16.5689 15.081L16.5464 15.1035C16.4269 15.2189 16.2742 15.2941 16.1098 15.3183C15.9454 15.3425 15.7776 15.3146 15.6299 15.2385C14.4997 14.6859 13.258 14.399 11.9999 14.4ZM19.3574 7.04249L20.4779 5.92199C21.3639 6.37299 22.2064 6.88799 23.0054 7.46699C23.0898 7.53004 23.1595 7.61067 23.2096 7.70329C23.2598 7.79592 23.2892 7.89833 23.2959 8.00346C23.3026 8.10858 23.2864 8.21391 23.2485 8.31215C23.2105 8.4104 23.1516 8.49922 23.0759 8.57249C22.9445 8.70107 22.7719 8.7791 22.5886 8.79282C22.4053 8.80655 22.223 8.75507 22.0739 8.64749C21.2193 8.03062 20.31 7.49338 19.3574 7.04249ZM13.5299 17.07C13.8869 17.28 13.8839 17.766 13.5899 18.06L12.5294 19.119C12.3887 19.2596 12.198 19.3386 11.9991 19.3386C11.8003 19.3386 11.6095 19.2596 11.4689 19.119L10.4084 18.0585C10.1159 17.766 10.1129 17.2815 10.4684 17.0685C10.932 16.794 11.4611 16.6494 11.9999 16.65C12.5609 16.65 13.0829 16.803 13.5299 17.07ZM20.0624 2.21249C20.2116 2.0633 20.4139 1.97949 20.6249 1.97949C20.8359 1.97949 21.0382 2.0633 21.1874 2.21249C21.3366 2.36167 21.4204 2.56401 21.4204 2.77499C21.4204 2.98597 21.3366 3.1883 21.1874 3.33749L5.06239 19.4625C4.98853 19.5364 4.90083 19.5949 4.80432 19.6349C4.7078 19.6749 4.60436 19.6955 4.49989 19.6955C4.39543 19.6955 4.29199 19.6749 4.19547 19.6349C4.09896 19.5949 4.01126 19.5364 3.93739 19.4625C3.86353 19.3886 3.80493 19.3009 3.76495 19.2044C3.72497 19.1079 3.7044 19.0045 3.7044 18.9C3.7044 18.7955 3.72497 18.6921 3.76495 18.5956C3.80493 18.499 3.86353 18.4114 3.93739 18.3375L20.0624 2.21249Z" fill="url(#paint0_linear_43_116)"/>
      <defs>
        <linearGradient id="paint0_linear_43_116" x1="11.9999" y1="1.97949" x2="11.9999" y2="19.6955" gradientUnits="userSpaceOnUse">
          <stop stop-color="#06A9E9"/>
          <stop offset="1" stop-color="#005A7E"/>
        </linearGradient>
      </defs>
    </symbol>
  </defs>
</svg>
